<svg id="Github" xmlns="http://www.w3.org/2000/svg" viewBox="0 0 509.43 599.8"><defs><style>.cls-1{fill:#231f20;}.cls-1,.cls-2{stroke:#231f20;stroke-miterlimit:10;}.cls-2{fill:#fff;}</style></defs><rect class="cls-1" x="0.5" y="0.5" width="508.43" height="598.8" rx="75.65"/><ellipse class="cls-2" cx="254.79" cy="303.33" rx="158.36" ry="184.76"/><path class="cls-1" d="M305.34,481l-9.24-4.88c.51-2.8-.1-9.49-.5-34.14-.13-7.92-.19-11.89-.21-14.38-.1-14.57.24-14.11-.21-17.34-.1-.71-2.46-17.08-7.83-20.94-.31-.23-1.85-1.26-1.67-2.24s2.13-1.44,2.73-1.57c6.7-1.51,26.91-7.32,31.94-9.1,14.46-5.09,22.21-18.58,25.38-24.11,3.66-6.37,5-11.52,7.4-20.73a135.61,135.61,0,0,0,4.45-33.42c0-2.29,0-17.71-4.45-31.93-3.63-11.67-8-15.34-9.73-15.87a3.53,3.53,0,0,1-2.3-1.68,3.13,3.13,0,0,1,.19-2.34c1.75-4.18,2.58-24.16,1.06-38.28-.61-5.59-1.34-8.06-3.39-9.52-3.08-2.19-7.43-.86-11.32.39A70.22,70.22,0,0,0,302.58,214a10.11,10.11,0,0,1-5.71,3.17c-3.49.47-6.37-1.57-7.19-2.11-9.53-6.24-42.56-7.27-65.57.21-2.7.88-4.86,1.74-8,1.48-9.27-.76-11.13-9.78-22.56-15.67-1.4-.72-14-7-20.38-2.09-3.29,2.56-3.46,7.09-3.66,15.16-.41,17.3,4.79,23.25,1.05,33.44-1.67,4.56-2.8,3.6-6.27,9.93-2.4,4.37-5.84,12.06-7.32,30.31-1.19,14.62-2.05,25.18,1,39.2,2.63,11.9,5.84,26.57,18.3,38.67,8.64,8.4,22,15.82,31.13,16.88,5.56.64,10.86,2.89,16.42,3.51,1.1.12,4.08.41,4.31,1.56.16.78-1,1.57-1.69,2.12-5.77,4.61-7.74,15.56-7.47,18.88a4.37,4.37,0,0,1-.36,2.27,4.85,4.85,0,0,1-2.33,2.12c-7.91,3.86-13.53,4-13.53,4A31.45,31.45,0,0,1,186,413c-6.12-3.52-10.13-9.08-18-20.31-2.9-4.15-3.88-6-6.77-8.67,0,0-7.63-7-16.48-6.73a5.39,5.39,0,0,0-3.61,1.23,4.71,4.71,0,0,0-1.41,4.42c.39,1.6,1.72,2.33,4,3.83s4.29,3.35,6.55,4.86c4.2,2.81,6.37,7.1,9.73,13.75,4.95,9.8,3.43,11.64,7.62,18.61a36.42,36.42,0,0,0,9.51,11.21c10.14,7.61,22.4,6.91,28.56,6.56,4.61-.26,9.34-3.78,11.42-1.69.81.81.83,2,.85,3.17.07,7.53.11,11.3,0,18.19-.1,5.64.32,5.92-.13,9.27-.66,5-1.89,6.68-1.92,8.08L209.24,481a126.08,126.08,0,0,0,96.1,0Z" transform="translate(-2.31 -1.68)"/></svg>