<svg xmlns="http://www.w3.org/2000/svg" width="43.697" height="46.632" viewBox="0 0 43.697 46.632"><path d="M37.228,39.738H30.757V28.918c0-2.58-.049-5.9-3.372-5.9-3.374,0-3.889,2.808-3.889,5.711V39.738H17.025V17.487h6.216V20.52h.084a6.754,6.754,0,0,1,6.136-3.595c6.556,0,7.769,4.6,7.769,10.6V39.738ZM9.717,14.442A3.887,3.887,0,0,1,5.961,10.43,3.886,3.886,0,0,1,9.717,6.422a3.891,3.891,0,0,1,3.758,4.008A3.894,3.894,0,0,1,9.717,14.442Zm3.245,25.3H6.473V17.487h6.489ZM40.465,0H3.224A3.293,3.293,0,0,0,0,3.359V43.273a3.292,3.292,0,0,0,3.224,3.359H40.46A3.3,3.3,0,0,0,43.7,43.273V3.359A3.3,3.3,0,0,0,40.46,0Z" fill="#0077c9"/></svg>